PathFileType	4	(X/Y/Z)	G:/Ayumi_testdata/vicon/updated_static_jc/static_00.trc	
DataRate	CameraRate	NumFrames	NumMarkers	Units	OrigDataRate	OrigDataStartFrame	OrigNumFrames	
200.00	200.00	5	66	mm	200.00	1	295	
Frame#	Time	LASI			RASI			RSACR			LSACR			USACR			LBAR			RBAR			RHEE			RMT1			RMT5			RMT2			LHEE			LMT1			LMT5			LMT2			LMMAL			LMFC			LLFC			LLMAL			LTIB4			LTIB2			LTIB3			LTIB1			RMMAL			RMFC			RLFC			RLMAL			RTIB1			RTIB2			RTIB3			RTHI1			RTHI4			RTHI3			RTHI2			LTHI1			LTHI4			LTHI3			LTHI2			FHD			LBHD			RBHD			C7			T10			CLAV			LSHO			RSHO			LRAD			LUL			LRFIN			RRAD			RUL			RUFIN			RLEP			RMEP			LLEP			LMEP			LDUPA			LMUPA			LUUPA			RDUPA			RUUPA			RMUPA			RKJC			LKJC			LAKJC			RAKJC			
		X1	Y1	Z1	X2	Y2	Z2	X3	Y3	Z3	X4	Y4	Z4	X5	Y5	Z5	X6	Y6	Z6	X7	Y7	Z7	X8	Y8	Z8	X9	Y9	Z9	X10	Y10	Z10	X11	Y11	Z11	X12	Y12	Z12	X13	Y13	Z13	X14	Y14	Z14	X15	Y15	Z15	X16	Y16	Z16	X17	Y17	Z17	X18	Y18	Z18	X19	Y19	Z19	X20	Y20	Z20	X21	Y21	Z21	X22	Y22	Z22	X23	Y23	Z23	X24	Y24	Z24	X25	Y25	Z25	X26	Y26	Z26	X27	Y27	Z27	X28	Y28	Z28	X29	Y29	Z29	X30	Y30	Z30	X31	Y31	Z31	X32	Y32	Z32	X33	Y33	Z33	X34	Y34	Z34	X35	Y35	Z35	X36	Y36	Z36	X37	Y37	Z37	X38	Y38	Z38	X39	Y39	Z39	X40	Y40	Z40	X41	Y41	Z41	X42	Y42	Z42	X43	Y43	Z43	X44	Y44	Z44	X45	Y45	Z45	X46	Y46	Z46	X47	Y47	Z47	X48	Y48	Z48	X49	Y49	Z49	X50	Y50	Z50	X51	Y51	Z51	X52	Y52	Z52	X53	Y53	Z53	X54	Y54	Z54	X55	Y55	Z55	X56	Y56	Z56	X57	Y57	Z57	X58	Y58	Z58	X59	Y59	Z59	X60	Y60	Z60	X61	Y61	Z61	X62	Y62	Z62	X63	Y63	Z63	X64	Y64	Z64	X65	Y65	Z65	X66	Y66	Z66	

1	0.000	134.79382	762.62158	918.20923	130.56143	984.83624	918.76984	310.44223	912.51917	950.28973	309.64288	852.55396	953.53687	298.79434	882.50592	966.66345	1270.78271	-346.52930	26.25188	1226.43372	1876.82251	26.21027	323.07159	1019.67847	39.82836	128.14172	1043.34631	43.51535	165.08514	1113.69775	34.82756	140.18863	1079.99780	42.71430	326.30206	745.13928	45.82972	134.39859	736.44824	46.33902	169.92299	662.75549	33.47448	143.17117	698.04590	45.93396	276.68774	778.66864	72.95644	233.37778	829.15778	456.91852	219.79961	721.54169	454.04736	278.81467	700.91992	69.08092	290.46576	691.55310	209.58102	314.24341	691.51624	270.85883	263.66745	684.52930	268.15100	301.95154	687.18445	314.28122	275.13879	994.03876	68.37392	235.84389	935.52985	446.60208	221.27034	1041.42761	461.40494	284.78787	1068.74048	72.23013	257.51578	1082.79395	319.30341	307.99185	1077.29407	313.95724	276.95221	1081.43018	256.13730	242.86894	1060.17261	783.97601	243.78491	1066.12231	635.32190	192.37323	1066.81287	637.13611	220.28116	1070.31238	697.13995	239.45186	698.95575	778.98419	237.21959	694.85803	646.83630	186.54933	693.65363	637.58679	201.08905	689.50507	701.32056	132.60066	775.14142	1593.37451	243.28317	786.35449	1575.83484	254.57817	909.86145	1571.32227	264.03146	857.76569	1391.40588	286.75681	877.52594	1007.66882	141.30702	872.79272	1329.08350	245.18042	724.75177	1380.94299	237.61098	986.89899	1397.06897	164.41995	222.64528	1357.18311	205.05896	222.02051	1352.80139	150.89740	130.71617	1336.52954	242.82439	1500.84302	1388.35632	289.67392	1499.82190	1382.05750	237.29614	1591.00916	1390.43250	294.56946	1271.27405	1329.42859	256.16586	1271.85266	1295.90942	220.65540	453.87704	1299.80408	179.75864	466.82529	1277.45142	237.07768	505.76321	1353.65039	201.29420	536.37860	1371.35071	238.50546	584.86621	1362.31775	267.53052	1205.88171	1382.06616	258.10913	1144.19690	1383.86426	217.26965	1212.51624	1385.23901	228.55711	988.47873	454.00351	226.58869	775.34973	455.48294	277.75121	739.79428	71.01868	279.96333	1031.38962	70.30202 
2	0.005	134.78593	762.61182	918.19867	130.56076	984.83807	918.76740	310.43344	912.50385	950.29236	309.62967	852.55621	953.55316	298.78241	882.49274	966.66718	1270.78088	-346.53891	26.25318	1226.43799	1876.80981	26.20183	323.07877	1019.66962	39.83010	128.14781	1043.35193	43.50354	165.07742	1113.70288	34.83405	140.18962	1080.00488	42.71792	326.30341	745.14459	45.83045	134.39954	736.45038	46.33624	169.92409	662.75525	33.46624	143.17403	698.05188	45.93346	276.68875	778.66956	72.96676	233.37399	829.16284	456.91315	219.80733	721.53809	454.05081	278.79813	700.92297	69.08713	290.48013	691.55627	209.56721	314.21478	691.50745	270.92294	263.66733	684.52570	268.15024	301.94693	687.16345	314.30502	275.14859	994.03656	68.37477	235.85252	935.52008	446.59933	221.29637	1041.41589	461.39847	284.79083	1068.74146	72.22923	257.52145	1082.79639	319.30298	307.99942	1077.29358	313.96439	276.96429	1081.42529	256.14310	242.86273	1060.17615	783.98541	243.80925	1066.14087	635.34100	192.37691	1066.82764	637.16345	220.29356	1070.31982	697.17004	239.44037	698.94714	778.98859	237.16673	695.38782	646.63605	186.53749	693.65076	637.58765	201.08522	689.50067	701.31702	132.56361	775.14307	1593.38049	243.22787	786.36115	1575.81628	254.54779	909.85156	1571.30835	263.99619	857.76343	1391.40869	286.74603	877.52832	1007.67401	141.26544	872.78839	1329.07593	245.15454	724.74408	1380.94897	237.58485	986.88940	1397.07141	164.40732	222.63998	1357.15979	205.05621	222.00948	1352.78247	150.91170	130.69774	1336.48303	242.79010	1500.83936	1388.36279	289.64127	1499.81226	1382.05969	237.27811	1591.00183	1390.44788	294.51178	1271.26758	1329.43787	256.12009	1271.85022	1295.91626	220.62712	453.89020	1299.79163	179.73520	466.82477	1277.43701	237.05490	505.76022	1353.64111	201.26479	536.37506	1371.33618	238.56451	584.89636	1362.11987	267.48721	1205.88086	1382.06775	258.07407	1144.18823	1383.86719	217.21054	1212.51807	1385.23535	228.57445	988.46799	453.99890	226.59066	775.35046	455.48198	277.74344	739.79626	71.02694	279.96971	1031.38901	70.30200 
3	0.010	134.77596	762.60547	918.19476	130.55394	984.82855	918.75604	310.42761	912.50415	950.30066	309.63055	852.54315	953.55518	298.75903	882.49438	966.66321	1270.78284	-346.54727	26.25830	1226.43933	1876.81323	26.20470	323.07394	1019.67853	39.83177	128.14870	1043.33923	43.49212	165.08075	1113.70276	34.82891	140.19542	1079.99976	42.71499	326.30328	745.14410	45.83321	134.40044	736.43683	46.33134	169.92711	662.74841	33.46887	143.17357	698.04260	45.93377	276.68231	778.67511	72.96092	233.38206	829.15979	456.92517	219.81528	721.53564	454.05536	278.80765	700.91809	69.09145	290.48376	691.56000	209.56746	314.24924	691.50714	270.86758	263.66589	684.52722	268.15131	301.94897	687.16187	314.29437	275.14401	994.03772	68.38000	235.86737	935.51782	446.59485	221.31439	1041.41846	461.40173	284.79501	1068.73608	72.22630	257.53690	1082.77466	319.29788	308.01471	1077.27100	313.95642	276.97256	1081.41736	256.15079	242.86615	1060.16541	783.98279	243.82230	1066.07971	635.34094	192.39349	1066.83350	637.17810	220.16913	1070.37756	697.25812	239.44803	698.95355	778.98779	237.20322	694.85944	646.82086	186.54242	693.65247	637.58807	201.09427	689.50073	701.32257	132.53525	775.13599	1593.38123	243.20219	786.35571	1575.80627	254.52368	909.84741	1571.29248	263.96884	857.75439	1391.41699	286.74265	877.52240	1007.67438	141.22763	872.78607	1329.06750	245.12486	724.73633	1380.93384	237.53961	986.89288	1397.07043	164.41177	222.62901	1357.13220	205.05846	222.01247	1352.77441	150.92159	130.69127	1336.44849	242.75314	1500.83447	1388.36780	289.60651	1499.81140	1382.06079	237.25127	1591.00427	1390.46521	294.48056	1271.26953	1329.45190	256.07535	1271.84082	1295.92896	220.62074	453.87775	1299.77881	179.71901	466.81940	1277.42847	237.03542	505.74973	1353.62756	201.26355	536.36115	1371.33813	238.46312	584.87231	1362.31726	267.42914	1205.88110	1382.07629	258.02991	1144.18262	1383.87354	217.18642	1212.49426	1385.23877	228.59088	988.46814	453.99829	226.59867	775.34772	455.49026	277.74498	739.79660	71.02618	279.96951	1031.38690	70.30315 
4	0.015	134.77431	762.59644	918.18781	130.54558	984.82642	918.74976	310.41678	912.49243	950.30811	309.63062	852.54126	953.55969	298.76096	882.48163	966.67902	1270.78979	-346.54266	26.27321	1226.44055	1876.80127	26.19663	323.07178	1019.68079	39.81994	128.15996	1043.33630	43.48858	165.07887	1113.69910	34.82101	140.19667	1080.00708	42.71609	326.29953	745.14502	45.83656	134.39738	736.44910	46.33170	169.92253	662.75061	33.46987	143.17288	698.04041	45.93078	276.68875	778.66876	72.95759	233.38882	829.15295	456.92444	219.81445	721.52740	454.05466	278.81638	700.92847	69.09669	290.49091	691.54840	209.57091	314.24268	691.49969	270.86603	263.67517	684.52661	268.15317	301.95526	687.17554	314.26321	275.14413	994.03644	68.37200	235.86826	935.50293	446.60046	221.31271	1041.42419	461.40521	284.79129	1068.73450	72.21869	257.53479	1082.78528	319.31198	308.02670	1077.26550	313.96747	276.98563	1081.40527	256.13474	242.87238	1060.15930	783.98059	243.83105	1066.09436	635.33289	192.41226	1066.80762	637.15845	220.17270	1070.37207	697.27539	239.44066	698.94812	778.99396	237.17393	695.39447	646.64709	186.53415	693.64691	637.58606	201.07788	689.50397	701.32361	132.52721	775.12256	1593.36292	243.17397	786.35657	1575.78845	254.49138	909.84778	1571.27527	263.94580	857.75708	1391.41577	286.73007	877.52612	1007.68134	141.19962	872.77441	1329.06470	245.10081	724.73645	1380.93799	237.51836	986.88275	1397.07275	164.41264	222.62085	1357.12317	205.05974	222.01111	1352.76001	150.92868	130.68488	1336.42542	242.71786	1500.83472	1388.37671	289.56238	1499.80823	1382.07104	237.22037	1590.99121	1390.47339	294.42987	1271.25793	1329.45996	256.03738	1271.83655	1295.94031	220.60016	453.87778	1299.76331	179.70589	466.82278	1277.41479	237.01784	505.74414	1353.61572	201.24387	536.35065	1371.32629	238.52301	584.88403	1362.10681	267.37384	1205.86755	1382.07703	257.98828	1144.17957	1383.87903	217.11453	1212.50549	1385.25537	228.59048	988.46356	454.00284	226.60164	775.34018	455.48955	277.75256	739.79861	71.02714	279.96771	1031.38547	70.29535 
5	0.020	134.76028	762.58942	918.18774	130.54491	984.82062	918.74707	310.39880	912.49408	950.31531	309.60822	852.54669	953.56451	298.74887	882.47107	966.67542	1270.77966	-346.51669	26.25360	1226.42908	1876.82227	26.21186	323.07410	1019.67407	39.82949	128.14713	1043.34509	43.49602	165.08128	1113.70642	34.82693	140.19092	1080.00403	42.71370	326.29651	745.13696	45.82571	134.39941	736.44629	46.32561	169.91858	662.75891	33.45611	143.17604	698.03955	45.92321	276.68930	778.67145	72.96100	233.41318	829.15234	456.93085	219.81459	721.52692	454.05283	278.80966	700.91852	69.09144	290.48526	691.53955	209.56534	314.21387	691.49725	270.92050	263.68420	684.51233	268.15137	301.97186	687.16754	314.26651	275.14832	994.04724	68.36987	235.88567	935.50647	446.58664	221.32071	1041.42053	461.39996	284.78540	1068.72937	72.21867	257.55255	1082.77209	319.30591	308.03989	1077.25024	313.96490	276.99100	1081.42114	256.14682	242.87976	1060.14856	783.98157	243.71753	1064.92419	635.15283	192.44499	1066.81628	637.16895	220.33226	1070.28894	697.12091	239.45551	698.94977	778.99652	237.18021	695.38428	646.66235	186.54999	693.62982	637.58405	201.08093	689.48358	701.32214	132.48712	775.12085	1593.34949	243.13135	786.35431	1575.76526	254.45308	909.83844	1571.27222	263.91714	857.74835	1391.41736	286.71716	877.52228	1007.68372	141.17921	872.77277	1329.06042	245.06146	724.73590	1380.93005	237.47427	986.88110	1397.06934	164.40997	222.61198	1357.10364	205.04611	222.01385	1352.73901	150.93356	130.67715	1336.40063	242.67743	1500.83179	1388.38062	289.53275	1499.80688	1382.08154	237.17903	1590.98682	1390.48499	294.38394	1271.26831	1329.47327	256.00247	1271.82922	1295.94275	220.61380	453.87183	1299.75256	179.69646	466.82114	1277.40625	237.00000	505.73160	1353.59351	201.24828	536.35358	1371.30884	238.48119	584.80756	1362.19836	267.33633	1205.86475	1382.08569	257.94617	1144.17700	1383.88928	217.07353	1212.49231	1385.25439	228.60319	988.46350	453.99330	226.61388	775.33963	455.49184	277.74948	739.79498	71.02622	279.96686	1031.38831	70.29427 
